<?xml version="1.0" encoding="UTF-8"?><svg id="Layer_1" xmlns="http://www.w3.org/2000/svg" viewBox="0 0 60.92 96.08"><defs><style>.cls-1{fill:#de1f26;stroke-width:0px;}</style></defs><g id="uDWPJr.tif"><path class="cls-1" d="M58.73,34.66c-7.46,4.52-12.77,7.91-20.12,12.59-.63.4-1.48.42-1.13,1.44,4.85,14.08,10.54,30.11,15.46,44.17.09.26-.05.6-.59,1.11-7.71-14-10.98-29.72-17.28-44.6-3.39,1.86-6.66,3.43-9.7,5.2-1.07.62-1.84.99-2.51,1.53-.48.38,1.43,5.35,2.02,7.11,3.15,9.46,4.64,15.7,7.69,25.19.61,1.9,1.5,5.69,1.88,7.67-.68,0-2.07-2.1-2.36-2.87-1.29-3.43-1.47-4.26-2.61-7.74-2.96-8.99-6.06-18.46-9.21-27.74-6.93,3.44-13.56,7.26-20.2,10.56-.32-.51.42-1.78.1-2.29,2.57-1.79,3.85-2.77,6.63-4.13,6.97-3.42,12.31-5.96,12.59-7.02.2-.75-1.76-7-3.69-13.47-3.05-10.18-5.83-21.83-8.52-32.11-.14-.52.38.17.42-.39.43-.09.86-.18,1.3-.27,4.19,14.79,8.68,29.58,12.9,44.5,3.44-1.65,6.12-3.17,9.2-4.51,1.51-.66,3.19-.98,3.11-2.03-.1-1.25-.47-2.69-.93-4.11-4.15-12.87-8.13-25.8-12.14-38.72-.32-1.04-.42-2.15-.62-3.23.56-.17,1.12-.35,1.68-.52,4.78,15.03,9.55,30.06,14.51,45.66,6.83-4.44,11.8-7,18.08-10.9,1.46-.91,4.53-2.68,6.22-3.2,0,.68-.94,2.05-2.19,3.11Z"/></g></svg>