<?xml version="1.0" encoding="UTF-8"?><svg id="Layer_1" xmlns="http://www.w3.org/2000/svg" viewBox="0 0 214.81 66.44"><defs><style>.cls-1{fill:#000;}.cls-1,.cls-2{stroke-width:0px;}.cls-2{fill:#231f20;}</style></defs><g id="uDWPJr.tif"><path class="cls-1" d="M40.62,23.97c-5.16,3.12-8.83,5.47-13.92,8.71-.43.28-1.02.29-.78,1,3.35,9.74,7.29,20.82,10.69,30.54.06.18-.03.42-.41.77-5.33-9.68-7.59-20.55-11.95-30.85-2.35,1.29-4.61,2.37-6.71,3.6-.74.43-1.27.69-1.73,1.06-.33.27.99,3.7,1.4,4.92,2.18,6.54,3.21,10.86,5.32,17.42.42,1.32,1.04,3.94,1.3,5.31-.47,0-1.43-1.45-1.63-1.98-.89-2.38-1.02-2.94-1.81-5.35-2.05-6.22-4.19-12.77-6.37-19.18-4.79,2.38-9.38,5.02-13.97,7.3-.22-.36.29-1.23.07-1.58,1.78-1.24,2.66-1.92,4.59-2.86,4.82-2.36,8.51-4.12,8.71-4.85.14-.52-1.22-4.84-2.55-9.31-2.11-7.04-4.03-15.09-5.89-22.2-.09-.36.26.12.29-.27.3-.06.6-.12.9-.19,2.9,10.23,6,20.46,8.92,30.78,2.38-1.14,4.24-2.19,6.36-3.12,1.04-.45,2.21-.68,2.15-1.4-.07-.86-.33-1.86-.64-2.84-2.87-8.9-5.62-17.84-8.4-26.78-.22-.72-.29-1.49-.43-2.23.39-.12.77-.24,1.16-.36,3.3,10.39,6.61,20.79,10.03,31.58,4.72-3.07,8.16-4.84,12.51-7.54,1.01-.63,3.13-1.85,4.3-2.22,0,.47-.65,1.42-1.51,2.15Z"/></g><path class="cls-2" d="M51.73,23.02h3.4v-3.49h2.35v9.05h-2.35v-3.73h-3.4v3.73h-2.35v-9.05h2.35v3.49Z"/><path class="cls-2" d="M64.52,21.52h-2.8v1.51h2.64v1.99h-2.64v1.56h2.8v1.99h-5.15v-9.05h5.15v1.99Z"/><path class="cls-2" d="M71.76,27.01h-3.36l-.54,1.57h-2.51l3.44-9.05h2.57l3.44,9.05h-2.51l-.54-1.57ZM71.14,25.22l-1.06-3.01-1.06,3.01h2.11Z"/><path class="cls-2" d="M78.87,21.52v7.06h-2.35v-7.06h-1.93v-1.99h6.22v1.99h-1.93Z"/><path class="cls-2" d="M84.2,23.02h3.4v-3.49h2.35v9.05h-2.35v-3.73h-3.4v3.73h-2.35v-9.05h2.35v3.49Z"/><path class="cls-2" d="M96.99,21.52h-2.8v1.51h2.64v1.99h-2.64v1.56h2.8v1.99h-5.15v-9.05h5.15v1.99Z"/><path class="cls-2" d="M106.21,28.58h-2.93l-2.24-3.48v3.48h-2.35v-9.05h3.66c.5,0,.94.07,1.32.22.38.15.69.35.93.61.24.26.43.55.55.89s.19.7.19,1.08c0,.69-.17,1.25-.5,1.67s-.82.72-1.47.87l2.84,3.71ZM101.04,23.58h.44c.46,0,.82-.1,1.07-.29.25-.19.37-.47.37-.83s-.12-.64-.37-.83c-.25-.19-.6-.29-1.07-.29h-.44v2.23Z"/><path class="cls-2" d="M113.63,23.02h3.4v-3.49h2.35v9.05h-2.35v-3.73h-3.4v3.73h-2.35v-9.05h2.35v3.49Z"/><path class="cls-2" d="M126.42,21.52h-2.8v1.51h2.64v1.99h-2.64v1.56h2.8v1.99h-5.15v-9.05h5.15v1.99Z"/><path class="cls-2" d="M130.46,19.53v9.05h-2.35v-9.05h2.35Z"/><path class="cls-2" d="M137.33,21.85c-.26-.21-.51-.36-.77-.46-.26-.1-.5-.15-.74-.15-.3,0-.55.07-.74.22-.19.14-.29.33-.29.56,0,.16.05.29.14.4.1.1.22.19.38.27.16.08.33.14.53.2s.39.12.58.18c.77.26,1.33.6,1.69,1.03.36.43.53.99.53,1.67,0,.46-.08.88-.23,1.26s-.38.7-.68.97c-.3.27-.67.48-1.1.62-.44.15-.93.22-1.48.22-1.14,0-2.2-.34-3.18-1.02l1.01-1.9c.35.31.7.54,1.04.7.34.15.68.23,1.02.23.38,0,.67-.09.86-.26.19-.18.28-.38.28-.6,0-.14-.02-.25-.07-.35-.05-.1-.13-.19-.24-.28-.11-.08-.26-.16-.44-.23-.18-.07-.4-.15-.65-.24-.3-.1-.6-.2-.89-.32s-.55-.27-.78-.46c-.23-.19-.41-.43-.55-.73s-.21-.66-.21-1.11.07-.85.22-1.22c.15-.36.36-.68.62-.94.27-.26.6-.46.98-.61.39-.14.82-.22,1.3-.22.45,0,.92.06,1.4.19.49.12.96.31,1.4.55l-.94,1.84Z"/><path class="cls-2" d="M142.46,23.26l2.87-3.73h2.9l-3.59,4.28,3.92,4.76h-3.05l-3.06-3.92v3.92h-2.35v-9.05h2.35v3.73Z"/><path class="cls-2" d="M154.76,21.52h-2.8v1.51h2.64v1.99h-2.64v1.56h2.8v1.99h-5.15v-9.05h5.15v1.99Z"/><path class="cls-2" d="M158.81,19.53v7.06h2.82v1.99h-5.17v-9.05h2.35Z"/><path class="cls-2" d="M165.19,19.53v7.06h2.82v1.99h-5.17v-9.05h2.35Z"/><path class="cls-2" d="M177.75,19.53v6.28c0,.26-.01.51-.04.73-.03.22-.07.42-.14.58-.1.26-.25.49-.43.7-.18.21-.39.39-.63.54-.24.15-.51.26-.8.35s-.6.13-.92.13c-.97,0-1.76-.44-2.36-1.33l1.54-1.57c.04.27.13.49.26.65s.3.24.5.24c.44,0,.66-.35.66-1.04v-6.24h2.35Z"/><path class="cls-2" d="M179.25,24.06c0-.67.12-1.3.37-1.88s.59-1.09,1.03-1.52c.44-.43.97-.77,1.58-1.01.61-.24,1.29-.37,2.02-.37s1.4.12,2.02.37c.62.24,1.15.58,1.59,1.01.44.43.79.94,1.04,1.52.25.58.37,1.21.37,1.88s-.12,1.3-.37,1.88c-.25.58-.59,1.09-1.04,1.52-.44.43-.97.77-1.59,1.01-.62.24-1.29.37-2.02.37s-1.41-.12-2.02-.37c-.61-.24-1.14-.58-1.58-1.01-.44-.43-.78-.94-1.03-1.52s-.37-1.21-.37-1.88ZM181.71,24.06c0,.36.07.69.2,1,.14.3.32.57.55.79.23.22.5.4.81.52.31.12.63.19.98.19s.67-.06.98-.19c.31-.12.58-.3.82-.52.24-.22.42-.49.56-.79.14-.3.2-.64.2-1s-.07-.69-.2-1c-.14-.3-.32-.57-.56-.79-.24-.22-.51-.4-.82-.52-.31-.12-.63-.19-.98-.19s-.67.06-.98.19c-.31.12-.58.3-.81.52-.23.22-.42.49-.55.79-.14.3-.2.64-.2,1Z"/><path class="cls-2" d="M190.76,28.58v-9.05h2.35l4.34,5.53v-5.53h2.34v9.05h-2.34l-4.34-5.53v5.53h-2.35Z"/><path class="cls-2" d="M206.84,21.52h-2.8v1.51h2.64v1.99h-2.64v1.56h2.8v1.99h-5.15v-9.05h5.15v1.99Z"/><path class="cls-2" d="M213.5,21.85c-.26-.21-.51-.36-.77-.46-.26-.1-.5-.15-.74-.15-.3,0-.55.07-.74.22-.19.14-.29.33-.29.56,0,.16.05.29.14.4.1.1.22.19.38.27.16.08.33.14.53.2s.39.12.58.18c.77.26,1.33.6,1.69,1.03.36.43.53.99.53,1.67,0,.46-.08.88-.23,1.26s-.38.7-.68.97c-.3.27-.67.48-1.1.62-.44.15-.93.22-1.48.22-1.14,0-2.2-.34-3.18-1.02l1.01-1.9c.35.31.7.54,1.04.7.34.15.68.23,1.02.23.38,0,.67-.09.86-.26.19-.18.28-.38.28-.6,0-.14-.02-.25-.07-.35-.05-.1-.13-.19-.24-.28-.11-.08-.26-.16-.44-.23-.18-.07-.4-.15-.65-.24-.3-.1-.6-.2-.89-.32s-.55-.27-.78-.46c-.23-.19-.41-.43-.55-.73s-.21-.66-.21-1.11.07-.85.22-1.22c.15-.36.36-.68.62-.94.27-.26.6-.46.98-.61.39-.14.82-.22,1.3-.22.45,0,.92.06,1.4.19.49.12.96.31,1.4.55l-.94,1.84Z"/><path class="cls-2" d="M52.25,35.44h-2.1v1.45h2.03v.86h-2.03v2.87h-.91v-6.03h3.01v.86Z"/><path class="cls-2" d="M55.81,34.59v6.03h-.91v-6.03h.91Z"/><path class="cls-2" d="M58.86,40.62v-6.44l4.4,4.6v-4.19h.91v6.4l-4.4-4.59v4.22h-.91Z"/><path class="cls-2" d="M70.55,35.44h-2.42v1.45h2.35v.86h-2.35v2.02h2.42v.86h-3.33v-6.03h3.33v.86Z"/><path class="cls-2" d="M80.95,39.15h-2.58l-.67,1.46h-.98l2.98-6.41,2.88,6.41h-1l-.63-1.46ZM80.58,38.3l-.89-2.05-.94,2.05h1.83Z"/><path class="cls-2" d="M86.98,38.05l1.87,2.57h-1.11l-1.72-2.47h-.16v2.47h-.91v-6.03h1.07c.8,0,1.37.15,1.73.45.39.33.59.77.59,1.32,0,.43-.12.79-.37,1.1-.25.31-.57.5-.97.59ZM85.85,37.36h.29c.86,0,1.29-.33,1.29-.99,0-.62-.42-.93-1.26-.93h-.32v1.91Z"/><path class="cls-2" d="M92.95,35.44v5.18h-.91v-5.18h-1.39v-.86h3.68v.86h-1.38Z"/></svg>