<?xml version="1.0" encoding="UTF-8"?><svg id="Layer_1" xmlns="http://www.w3.org/2000/svg" viewBox="0 0 283.17 68.02"><defs><style>.cls-1{fill:#de1f26;}.cls-1,.cls-2{stroke-width:0px;}.cls-2{fill:#231f20;}</style></defs><g id="uDWPJr.tif"><path class="cls-1" d="M41.58,24.54c-5.28,3.2-9.04,5.6-14.24,8.92-.45.28-1.05.3-.8,1.02,3.43,9.97,7.46,21.32,10.95,31.27.06.18-.03.43-.42.79-5.46-9.91-7.77-21.04-12.23-31.58-2.4,1.32-4.72,2.43-6.87,3.68-.76.44-1.3.7-1.77,1.08-.34.27,1.01,3.79,1.43,5.04,2.23,6.7,3.28,11.11,5.45,17.83.43,1.35,1.06,4.03,1.33,5.43-.48,0-1.47-1.48-1.67-2.03-.91-2.43-1.04-3.01-1.85-5.48-2.09-6.36-4.29-13.07-6.52-19.64-4.91,2.44-9.6,5.14-14.3,7.47-.23-.36.3-1.26.07-1.62,1.82-1.27,2.73-1.96,4.7-2.93,4.94-2.42,8.71-4.22,8.92-4.97.14-.53-1.25-4.96-2.61-9.53-2.16-7.21-4.12-15.45-6.03-22.73-.1-.37.27.12.29-.28.31-.06.61-.13.92-.19,2.96,10.47,6.14,20.94,9.13,31.51,2.44-1.17,4.34-2.25,6.51-3.19,1.07-.46,2.26-.69,2.2-1.44-.07-.88-.33-1.9-.66-2.91-2.94-9.11-5.76-18.27-8.6-27.41-.23-.74-.29-1.52-.44-2.28.4-.12.79-.25,1.19-.37,3.38,10.64,6.76,21.28,10.27,32.32,4.83-3.15,8.35-4.95,12.8-7.72,1.03-.64,3.21-1.89,4.41-2.27,0,.48-.66,1.45-1.55,2.2Z"/></g><path class="cls-2" d="M55.42,22.11h4.74v-4.88h3.28v12.64h-3.28v-5.21h-4.74v5.21h-3.28v-12.64h3.28v4.88Z"/><path class="cls-2" d="M73.28,20.01h-3.9v2.11h3.69v2.78h-3.69v2.18h3.9v2.78h-7.19v-12.64h7.19v2.78Z"/><path class="cls-2" d="M83.39,27.67h-4.69l-.75,2.2h-3.5l4.81-12.64h3.59l4.81,12.64h-3.5l-.75-2.2ZM82.52,25.18l-1.48-4.21-1.47,4.21h2.95Z"/><path class="cls-2" d="M93.33,20.01v9.86h-3.28v-9.86h-2.7v-2.78h8.68v2.78h-2.7Z"/><path class="cls-2" d="M100.77,22.11h4.74v-4.88h3.28v12.64h-3.28v-5.21h-4.74v5.21h-3.28v-12.64h3.28v4.88Z"/><path class="cls-2" d="M118.63,20.01h-3.9v2.11h3.69v2.78h-3.69v2.18h3.9v2.78h-7.19v-12.64h7.19v2.78Z"/><path class="cls-2" d="M131.5,29.87h-4.09l-3.13-4.86v4.86h-3.28v-12.64h5.11c.7,0,1.32.1,1.84.31.53.21.96.49,1.3.85.34.36.6.77.77,1.24s.26.97.26,1.51c0,.96-.23,1.74-.7,2.34s-1.15,1-2.05,1.22l3.97,5.18ZM124.28,22.88h.62c.65,0,1.14-.14,1.49-.4.35-.27.52-.65.52-1.16s-.17-.89-.52-1.16c-.35-.27-.84-.4-1.49-.4h-.62v3.12Z"/><path class="cls-2" d="M141.86,22.11h4.74v-4.88h3.28v12.64h-3.28v-5.21h-4.74v5.21h-3.28v-12.64h3.28v4.88Z"/><path class="cls-2" d="M159.73,20.01h-3.9v2.11h3.69v2.78h-3.69v2.18h3.9v2.78h-7.19v-12.64h7.19v2.78Z"/><path class="cls-2" d="M165.37,17.23v12.64h-3.28v-12.64h3.28Z"/><path class="cls-2" d="M174.96,20.47c-.36-.29-.71-.51-1.07-.65-.36-.14-.71-.21-1.04-.21-.43,0-.77.1-1.04.3-.27.2-.4.46-.4.79,0,.22.07.41.2.55.14.14.31.27.53.38.22.11.46.2.74.28s.54.16.81.25c1.07.36,1.86.84,2.36,1.43.5.6.74,1.38.74,2.34,0,.65-.11,1.23-.33,1.76s-.54.98-.96,1.35c-.42.38-.93.67-1.54.87-.61.21-1.3.31-2.07.31-1.6,0-3.08-.47-4.44-1.43l1.41-2.65c.49.44.98.76,1.46.97.48.21.96.32,1.43.32.54,0,.94-.12,1.2-.37.26-.25.39-.53.39-.84,0-.19-.03-.35-.1-.49-.07-.14-.18-.27-.33-.39-.16-.12-.36-.23-.61-.33-.25-.1-.56-.21-.91-.34-.42-.14-.84-.28-1.25-.44s-.77-.38-1.09-.65c-.32-.27-.58-.61-.77-1.01s-.29-.92-.29-1.55.1-1.19.31-1.7c.21-.51.5-.94.87-1.31.38-.36.83-.65,1.37-.85.54-.2,1.15-.3,1.82-.3.63,0,1.28.09,1.96.26.68.17,1.34.43,1.96.76l-1.31,2.56Z"/><path class="cls-2" d="M182.13,22.44l4.01-5.21h4.06l-5.01,5.98,5.48,6.65h-4.26l-4.27-5.48v5.48h-3.28v-12.64h3.28v5.21Z"/><path class="cls-2" d="M199.31,20.01h-3.9v2.11h3.69v2.78h-3.69v2.18h3.9v2.78h-7.19v-12.64h7.19v2.78Z"/><path class="cls-2" d="M204.96,17.23v9.85h3.94v2.78h-7.22v-12.64h3.28Z"/><path class="cls-2" d="M213.87,17.23v9.85h3.94v2.78h-7.22v-12.64h3.28Z"/><path class="cls-2" d="M231.42,17.23v8.76c0,.37-.02.71-.06,1.02-.04.31-.1.58-.19.8-.14.36-.34.68-.59.98-.25.3-.54.55-.88.75-.34.21-.71.37-1.11.49s-.84.18-1.28.18c-1.35,0-2.45-.62-3.3-1.86l2.15-2.2c.06.38.18.68.37.91s.42.33.7.33c.62,0,.92-.49.92-1.46v-8.71h3.29Z"/><path class="cls-2" d="M233.52,23.55c0-.94.17-1.81.52-2.62s.83-1.52,1.44-2.12c.61-.6,1.35-1.08,2.2-1.42.85-.34,1.79-.51,2.82-.51s1.96.17,2.82.51c.86.34,1.6.81,2.22,1.42.62.6,1.1,1.31,1.45,2.12.35.81.52,1.68.52,2.62s-.17,1.81-.52,2.62c-.35.81-.83,1.52-1.45,2.12-.62.6-1.36,1.07-2.22,1.42-.86.34-1.8.51-2.82.51s-1.97-.17-2.82-.51c-.86-.34-1.59-.81-2.2-1.42-.62-.6-1.1-1.31-1.44-2.12s-.52-1.68-.52-2.62ZM236.95,23.55c0,.5.1.97.29,1.39.19.43.45.79.77,1.11.32.31.7.56,1.13.73.43.17.89.26,1.37.26s.94-.09,1.37-.26c.43-.17.81-.42,1.14-.73.33-.31.59-.68.78-1.11.19-.42.28-.89.28-1.39s-.09-.97-.28-1.39c-.19-.42-.45-.79-.78-1.11-.33-.31-.71-.56-1.14-.73-.43-.17-.89-.26-1.37-.26s-.94.09-1.37.26c-.43.17-.81.42-1.13.73-.32.31-.58.68-.77,1.11-.19.43-.29.89-.29,1.39Z"/><path class="cls-2" d="M249.59,29.87v-12.64h3.28l6.07,7.73v-7.73h3.27v12.64h-3.27l-6.07-7.73v7.73h-3.28Z"/><path class="cls-2" d="M272.04,20.01h-3.9v2.11h3.69v2.78h-3.69v2.18h3.9v2.78h-7.19v-12.64h7.19v2.78Z"/><path class="cls-2" d="M281.35,20.47c-.36-.29-.71-.51-1.07-.65-.36-.14-.71-.21-1.04-.21-.43,0-.77.1-1.04.3-.27.2-.4.46-.4.79,0,.22.07.41.2.55.14.14.31.27.53.38.22.11.46.2.74.28s.54.16.81.25c1.07.36,1.86.84,2.36,1.43.5.6.74,1.38.74,2.34,0,.65-.11,1.23-.33,1.76s-.54.98-.96,1.35c-.42.38-.93.67-1.54.87-.61.21-1.3.31-2.07.31-1.6,0-3.08-.47-4.44-1.43l1.41-2.65c.49.44.98.76,1.46.97.48.21.96.32,1.43.32.54,0,.94-.12,1.2-.37.26-.25.39-.53.39-.84,0-.19-.03-.35-.1-.49-.07-.14-.18-.27-.33-.39-.16-.12-.36-.23-.61-.33-.25-.1-.56-.21-.91-.34-.42-.14-.84-.28-1.25-.44s-.77-.38-1.09-.65c-.32-.27-.58-.61-.77-1.01s-.29-.92-.29-1.55.1-1.19.31-1.7c.21-.51.5-.94.87-1.31.38-.36.83-.65,1.37-.85.54-.2,1.15-.3,1.82-.3.63,0,1.28.09,1.96.26.68.17,1.34.43,1.96.76l-1.31,2.56Z"/><path class="cls-2" d="M56.14,39.45h-2.94v2.02h2.83v1.19h-2.83v4.01h-1.27v-8.42h4.21v1.19Z"/><path class="cls-2" d="M61.12,38.26v8.42h-1.27v-8.42h1.27Z"/><path class="cls-2" d="M65.38,46.68v-9l6.14,6.43v-5.85h1.27v8.94l-6.14-6.41v5.9h-1.27Z"/><path class="cls-2" d="M81.69,39.45h-3.38v2.02h3.28v1.19h-3.28v2.82h3.38v1.19h-4.65v-8.42h4.65v1.19Z"/><path class="cls-2" d="M96.23,44.64h-3.61l-.94,2.05h-1.37l4.17-8.95,4.02,8.95h-1.39l-.88-2.05ZM95.71,43.44l-1.25-2.86-1.31,2.86h2.56Z"/><path class="cls-2" d="M104.64,43.09l2.61,3.59h-1.55l-2.41-3.45h-.23v3.45h-1.27v-8.42h1.49c1.11,0,1.92.21,2.41.63.55.47.82,1.08.82,1.84,0,.6-.17,1.11-.51,1.54-.34.43-.79.7-1.35.82ZM103.06,42.13h.4c1.2,0,1.81-.46,1.81-1.38,0-.86-.59-1.29-1.76-1.29h-.45v2.67Z"/><path class="cls-2" d="M112.98,39.45v7.23h-1.27v-7.23h-1.94v-1.19h5.14v1.19h-1.93Z"/></svg>